<?xml version="1.0" encoding="UTF-8"?>
<svg xmlns="http://www.w3.org/2000/svg" xmlns:xlink="http://www.w3.org/1999/xlink" viewBox="0 0 3445.65 935.54">
  <defs>
    <style>
      .cls-1 {
        font-size: 345.35px;
      }

      .cls-1, .cls-2 {
        font-family: NotoKufiArabic-Regular, 'Noto Kufi Arabic';
      }

      .cls-3 {
        fill: url(#Degradado_sin_nombre_3-2);
      }

      .cls-4 {
        fill: url(#Amarillo_Sol_y_Azul_Rey-2);
      }

      .cls-5 {
        fill: url(#Amarillo_Sol_y_Azul_Rey-5);
      }

      .cls-6 {
        letter-spacing: -.02em;
      }

      .cls-7 {
        fill: #028592;
      }

      .cls-8 {
        fill: url(#Degradado_sin_nombre_3);
      }

      .cls-9 {
        fill: url(#Degradado_sin_nombre_14);
      }

      .cls-10 {
        fill: #fff;
        letter-spacing: 0em;
      }

      .cls-11 {
        fill: url(#Amarillo_Sol_y_Azul_Rey-7);
      }

      .cls-12 {
        fill: url(#Amarillo_Sol_y_Azul_Rey-6);
      }

      .cls-13 {
        fill: url(#Amarillo_Sol_y_Azul_Rey);
      }

      .cls-14 {
        fill: url(#Degradado_sin_nombre_9);
      }

      .cls-2 {
        font-size: 137.44px;
      }

      .cls-15 {
        fill: url(#Amarillo_Sol_y_Azul_Rey-4);
      }

      .cls-16 {
        fill: url(#Amarillo_Sol_y_Azul_Rey-3);
      }
    </style>
    <linearGradient id="Degradado_sin_nombre_3" data-name="Degradado sin nombre 3" x1="520.28" y1="403.16" x2="640.38" y2="403.16" gradientUnits="userSpaceOnUse">
      <stop offset="0" stop-color="#54d7a6"/>
      <stop offset=".37" stop-color="#69d9a0"/>
      <stop offset="1" stop-color="#96e094"/>
    </linearGradient>
    <linearGradient id="Degradado_sin_nombre_3-2" data-name="Degradado sin nombre 3" x1="564.69" y1="293.71" x2="581.33" y2="293.71" xlink:href="#Degradado_sin_nombre_3"/>
    <linearGradient id="Degradado_sin_nombre_14" data-name="Degradado sin nombre 14" x1="234.65" y1="601.95" x2="487.96" y2="268.03" gradientUnits="userSpaceOnUse">
      <stop offset=".02" stop-color="#028592"/>
      <stop offset=".58" stop-color="#12c8c5"/>
      <stop offset=".64" stop-color="#17c9c2"/>
      <stop offset=".72" stop-color="#27cbbc"/>
      <stop offset=".81" stop-color="#42d0b3"/>
      <stop offset=".9" stop-color="#67d7a5"/>
      <stop offset="1" stop-color="#96e094"/>
    </linearGradient>
    <radialGradient id="Degradado_sin_nombre_9" data-name="Degradado sin nombre 9" cx="403.74" cy="398.25" fx="403.74" fy="398.25" r="171.05" gradientUnits="userSpaceOnUse">
      <stop offset="0" stop-color="#fff"/>
      <stop offset=".21" stop-color="#fff"/>
      <stop offset=".36" stop-color="#84e0ce"/>
      <stop offset=".47" stop-color="#32ccae"/>
      <stop offset=".52" stop-color="#13c5a2"/>
      <stop offset=".76" stop-color="#2cc394"/>
      <stop offset=".89" stop-color="#3dc28c"/>
      <stop offset="1" stop-color="#028592"/>
    </radialGradient>
    <radialGradient id="Amarillo_Sol_y_Azul_Rey" data-name="Amarillo Sol y Azul Rey" cx="431.46" cy="429.16" fx="431.46" fy="429.16" r="278.49" gradientUnits="userSpaceOnUse">
      <stop offset=".16" stop-color="#c2ce4a"/>
      <stop offset=".35" stop-color="#c2ce4a"/>
      <stop offset=".49" stop-color="#e8dd5c"/>
      <stop offset=".58" stop-color="#fce565"/>
      <stop offset=".64" stop-color="#d2dd6d"/>
      <stop offset=".79" stop-color="#6aca82"/>
      <stop offset=".85" stop-color="#3dc28c"/>
      <stop offset="1" stop-color="#028592"/>
    </radialGradient>
    <radialGradient id="Amarillo_Sol_y_Azul_Rey-2" data-name="Amarillo Sol y Azul Rey" cx="491.09" cy="232.67" fx="491.09" fy="232.67" r="310" xlink:href="#Amarillo_Sol_y_Azul_Rey"/>
    <radialGradient id="Amarillo_Sol_y_Azul_Rey-3" data-name="Amarillo Sol y Azul Rey" cx="495.52" cy="310.95" fx="495.52" fy="310.95" r="280.72" xlink:href="#Amarillo_Sol_y_Azul_Rey"/>
    <radialGradient id="Amarillo_Sol_y_Azul_Rey-4" data-name="Amarillo Sol y Azul Rey" cx="453.08" cy="337.49" fx="453.08" fy="337.49" r="324.34" xlink:href="#Amarillo_Sol_y_Azul_Rey"/>
    <radialGradient id="Amarillo_Sol_y_Azul_Rey-5" data-name="Amarillo Sol y Azul Rey" cx="393.96" cy="433.43" fx="393.96" fy="433.43" r="331.07" xlink:href="#Amarillo_Sol_y_Azul_Rey"/>
    <radialGradient id="Amarillo_Sol_y_Azul_Rey-6" data-name="Amarillo Sol y Azul Rey" cx="375.83" cy="322.61" fx="375.83" fy="322.61" r="406.27" xlink:href="#Amarillo_Sol_y_Azul_Rey"/>
    <radialGradient id="Amarillo_Sol_y_Azul_Rey-7" data-name="Amarillo Sol y Azul Rey" cx="380.65" cy="372.5" fx="380.65" fy="372.5" r="323.59" xlink:href="#Amarillo_Sol_y_Azul_Rey"/>
  </defs>
  <g id="Caballo">
    <g id="Caballo-2" data-name="Caballo">
      <path class="cls-8" d="m671.7,405.06s-.29,4.23-.77,7.49c-.43,2.95-1.02,5.11-1.77,7.47-1.05,3.32-1.63,6.22-2.52,8.55-.11.33-.24.65-.38.98-.05.12-.09.23-.14.35-.14.33-.28.67-.43,1-.05.1-.09.21-.15.32-1.52,3.2-3.43,6.1-5.88,8.26,0,0-.02,0-.02,0l-1.11-.54-26.63-12.84s-.86.45-.43,3.55h0c.47,3.42,2.47,10.05,8.79,22.83l.17.32c.98,1.94,2.04,4.03,3.22,6.26,0,0,.15.23.41.69l.11.21s.02.05.07.13c1.52,2.74,5.6,10.7,7.99,21.71.02.05.04.09.04.14,1.11,5.06,1.85,10.77,1.84,16.89-.02,8.13-1.37,17.02-5.02,26.15,0,0,0,0,0,.03-.65,1.62-1.37,3.25-2.17,4.88-13.71,28.06-37.69,31.81-37.69,31.81,0,0-25.66,5.24-44.12-9.4-1.62-1.27-3.18-2.71-4.66-4.31,0,0-15.33-16.8-5.55-39.32,0,0,9.14-17.62,28.39-10.77,0,0,8.62,2.84,11.29,12.01.78,2.66,1.05,5.86.47,9.69,0,0-1.83-3.24-4.77-6.48-3.41-3.75-8.32-7.49-13.59-6.09-3.47.92-8.08,1.95-11.26,11.01-1.49,4.24-1.15,7.94-.09,10.94.43,1.2.96,2.3,1.54,3.27,2.06,3.43,4.66,5.37,4.66,5.37,0,0,7.83,6.14,16.15,6.36,7.3.2,13.55-.07,20.81-4.4,4.14-2.47,11.02-8.9,13.95-14.12,0,0,2.94-5.3,4.57-11.8.47-1.87.84-3.85.99-5.82.54-7.29-1.39-15.06-4.08-23.5-.06-.16-.1-.33-.17-.48-5.22-15.62-21.53-29.05-21.53-29.05,0,0-21.54-19.25-19.9-47.32,1.63-28.06,20.88-49.28,20.88-49.28,0,0,27.74-25.78,22.52-60.37-5.22-34.59-42.75-32.63-42.75-32.63l12.73-21.53s6.52,21.21,32.31,10.77c0,0,.98,25.46,25.45,25.78,0,0-13.06,22.51,6.86,33.94,0,0-15.67,18.6-4.57,35.57,0,0-19.59,9.46-23.5,37.2l30.34-14.69s9.79,3.69,9.11,32.79Z"/>
      <ellipse class="cls-3" cx="573.01" cy="293.71" rx="8.32" ry="7.75"/>
    </g>
  </g>
  <g id="TIPOGRAFIAS_01" data-name="TIPOGRAFIAS 01">
    <text class="cls-1" transform="translate(808.33 460.04)"><tspan class="cls-7" x="0" y="0">MAR DE</tspan><tspan x="1310.25" y="0"> </tspan><tspan class="cls-10" x="1427.67" y="0">MEDIA</tspan></text>
    <text class="cls-2" transform="translate(828.36 607.68)"><tspan x="0" y="0">Marketing . D</tspan><tspan class="cls-6" x="894.56" y="0">e</tspan><tspan x="969.32" y="0" xml:space="preserve">velopment . Multimedia  </tspan></text>
  </g>
  <g id="Camara_Dev" data-name="Camara &amp;amp; Dev">
    <path class="cls-9" d="m549.81,248.91h-48.44l-17.2-32.39c-5.2-12.76-17.72-21.77-32.34-21.77h-91.2c-14.66,0-27.21,9.05-32.37,21.85-.9,1.74-1.76,3.62-2.54,5.7l-11.12,26.61h-35.21v-9.15c0-3.74-3.03-6.77-6.77-6.77h-42.98c-3.74,0-6.76,3.03-6.76,6.77v9.15h-4.41c-15.45,0-29.42,6.35-39.44,16.58h384.07c4.67-4.75,7.13-9.31,8.34-12.17-6.64-2.84-13.95-4.41-21.63-4.41Zm60.72,247.05s0-.05-.04-.14c-.26-.93-2.04-6.39-8.92-13.37l-.16-.16c-4.22-4.5-10.39-9.72-19.36-15.13-25.95-15.66-34.02-35.25-34.02-35.25-12.73-33.53,1.22-55.55,1.22-55.55,0,0,12.24-21.3,36.96-37.2,23.42-15.08,17.83-34.12,17.18-36.07.22,1,.95,6.52-7.87,16.25-9.79,10.76-44.56,5.13-44.56,5.13-9.54-.73-16.89,3.67-21.04,8.56-4.16,4.9-6.61,2.94-6.61,2.94-8.81-4.89-11.26-16.63-11.26-16.63-1.96-4.91,2.94-6.62,2.94-6.62,0,0,7.34,2.46,19.58-5.38,12.23-7.83,10.77-16.16,10.77-16.16,0,0,.05-2.58,1.37-6.28H166.7c-2.22,5.99-3.44,12.47-3.44,19.23v10.75c27.52-5.42,69.89-6.37,109.78,22.59,0,0,19.72,14.79,29.71,40.5,9.63-43.48,47.88-76.14,93.89-77.05,3.08-.29,6.2-.44,9.36-.44,54.65,0,98.95,44.28,98.95,98.88s-44.3,98.89-98.95,98.89c-2.38,0-4.75-.08-7.09-.25h-.29c-43.5,0-80.4-28.38-93.3-67.7-1.18,4.38-2.73,8.9-4.72,13.52,0,0-19.8,42.06-62.01,20.68,0,0,23.53-34.22-6.41-40.87,0,0-31.37,3.8-13.78,45.61,0,0,15.88,36.65,56.79,61.83h262.48c-1.7-10.72.32-18.15.32-18.15,10.28-36.22,42.83-29.36,42.83-29.36,9.9,2.5,16.19,6.89,20.14,11.82,1.22,1.66,2.39,3.62,3.33,5.9,2.18,5.21,3.17,12.09.83,20.77-.14.54-.3,1.09-.48,1.65,0,0,.79-.73,1.84-2.12,2.9-3.84,7.87-12.8,4.05-25.62Z"/>
    <ellipse class="cls-14" cx="402.72" cy="399.27" rx="82.34" ry="81.45"/>
    <g id="Dev">
      <path class="cls-7" d="m422.04,355.97l-27.45,86.08c-.53,1.64-2.28,2.55-3.93,2.03l-2.78-.89c-1.64-.53-2.55-2.28-2.02-3.93l27.45-86.08c.52-1.64,2.28-2.55,3.92-2.03l2.78.89c1.64.53,2.55,2.28,2.03,3.93Z"/>
      <path class="cls-7" d="m372.77,421.17c.97.9,1.47,2.13,1.47,3.36,0,1.12-.4,2.23-1.21,3.11-1.72,1.86-4.61,1.98-6.47.26l-28.24-26.08c-.07-.06-.12-.14-.19-.22-.06-.07-.14-.14-.22-.22-.02-.03-.05-.08-.07-.11-.14-.17-.25-.35-.35-.53-.04-.07-.08-.14-.11-.2-.13-.24-.22-.48-.3-.73,0-.02,0-.03-.02-.05-.45-1.5-.14-3.18,1.01-4.42.26-.28.55-.51.86-.71l28.92-23.73c.85-.69,1.88-1.04,2.9-1.04,1.32,0,2.63.57,3.54,1.68,1.6,1.96,1.32,4.84-.64,6.45l-25.23,20.69,24.35,22.48Z"/>
      <path class="cls-7" d="m468.19,399.29s-.02.03-.02.05c-.08.26-.18.5-.3.73-.03.07-.07.14-.11.2-.1.18-.22.36-.35.53-.03.04-.05.08-.08.11-.06.08-.14.14-.22.22-.06.07-.11.15-.19.22l-28.24,26.08c-1.86,1.72-4.76,1.6-6.47-.26-.81-.89-1.21-2-1.21-3.11,0-1.23.49-2.46,1.47-3.36l24.35-22.48-25.23-20.7c-1.96-1.6-2.23-4.49-.63-6.45.9-1.1,2.21-1.67,3.54-1.67,1.02,0,2.05.34,2.9,1.04l28.93,23.73c.31.2.6.42.86.7,1.13,1.24,1.45,2.92,1.01,4.42Z"/>
    </g>
  </g>
  <g id="Olas_izquierda" data-name="Olas izquierda">
    <path id="Olas_Izquierda" data-name="Olas Izquierda" class="cls-13" d="m716.69,593.1c-1.59,1.65-3.22,3.24-4.88,4.76-5.31,4.18-14.24,10.94-25.97,18.86,0,.02-.03.03-.05.04-43.42,24.5-90.59,22.36-90.59,22.36,0,0-51.83,5.15-120.17-18.3-34.41-11.81-63.67-19.96-92.53-29.11-26.05-6.85-73.79-21.5-112.42-45.11-7.85-4.8-15.33-9.97-22.18-15.53-3.24-2.62-6.34-5.34-9.27-8.14-53.3-50.99-42.06-83.64-42.06-83.64,0,0,.19-20.41,20.1-31.82,0,0,24.19-12.26,38.6,9.79,0,0,14.77,20.99,2.74,37.87,0,0,33.01-17.01,26.83-51.89,0,0-4.95-44.71-60.48-63.13-22.25-7.38-43.1-6.73-60.1-3.3-25.44,5.14-42.27,16.5-42.27,16.5,0,0-6.19,3.66-14.67,11.75-20.96,20-55.86,67.1-45.19,152.88,0,0,5.13,112.41,137.78,193.92,18.01,11.07,38.37,21.57,61.4,31.14,22.25,8.47,48.82,16.03,79.98,20.98.06.02.12.03.18.03,7.61,1.21,15.51,2.26,23.67,3.13,134.19,14.31,233.59-54.93,236.36-56.9-8.2,3.89-16.64,6.85-25.12,9.05-57.04,14.83-115.89-4.63-115.89-4.63,0,0-6.76-2.53-20.77-8.64-11-4.78-26.47-11.78-46.66-21.49-13.3-6.41-28.65-13.99-46.12-22.9-77.7-39.63-120.14-32.93-120.14-32.93,0,0-50.25-.89-66.77,14.89-1.09,1.04-2.03,2.15-2.8,3.34-.11.16-.21.33-.31.49-.88-.93-1.77-1.87-2.65-2.83-77.72-62.6-70.31-170.76-70.31-170.76,0,0,1.53-78.12,67.4-107.23,45.82-20.25,70.59-5.62,81.43,5.17,2.97,2.21,6.28,5.36,6.81,8.68.01.01.01.02.01.02-102.97-20.08-129.61,72.68-129.61,72.68-18.68,57.79,19.58,122.25,38.85,149.65-12.69-34.14-40.63-81.99-17.91-144.8,2.53-7,5.62-15.57,16.6-25.79,1.85-1.72,13.79-12.51,25.53-10.21-3.21,10.48-3.84,27.74.5,42.64.01.05.02.09.03.14,3.41,17.93,12.02,41.71,32.88,64.75,8.21,9.07,18.32,18.03,30.75,26.46,14.16,9.62,31.36,18.58,52.2,26.26-.05,0-.1.01-.15.01-.18,0-.36.02-.54.03-81.33-11.95-119.76,34.01-119.76,34.01,5.93-1.66,11.81-3.06,17.64-4.21,98.86-19.61,181.51,30.25,181.51,30.25,0,0,107.23,57.45,191.49,60.51,2.43.09,4.85.08,7.25-.02h.01c7.24-.58,13.59-1.52,19.08-2.63,0,0,.02,0,.03,0,18.51-3.73,27.25-9.34,27.25-9.34,2.42-1.37,4.79-2.73,7.11-4.11.04-.02.09-.05.13-.07,7.67-4.53,14.75-9.07,21.3-13.57.08-.04.14-.09.2-.14,49.76-34.21,68.16-66.07,73.33-76.56.44-.89.78-1.61,1.04-2.18.38-.82.58-1.3.64-1.42l-.3.3Zm-400.05,105.75s31.41,20.09,47.95,28.47c0,0,12.01,7.65,27.06,14.23.53.24,1.08.47,1.62.7,4.97,2.11,10.23,4.09,15.47,5.61s10.46,2.59,15.36,2.91c0,0-51.14.57-106.53-15.36h-.01c-18.51-5.32-37.48-12.49-55.18-22.13-19.52-10.63-37.48-24.27-51.56-41.78,0,0,41.15-10.61,105.82,27.35Z"/>
  </g>
  <g id="Olas_derecha" data-name="Olas derecha">
    <g id="Olas_Derecha" data-name="Olas Derecha">
      <path class="cls-4" d="m680.27,349.32s16.76-169.87-105.96-261.77c0,0-97.8-75.35-207.68-55.22,0,0,103.31-13.85,215.35,98.76,0,0,104.28,109.88,98.29,218.22Z"/>
      <path class="cls-16" d="m743.82,353.7s-6.66,82.43-78.5,136.98c-.47-3.83-1.33-9.84-2.46-13.88,0,0-2.49-11.23-8.52-22.31-1.74-3-2.6-4.45-3.4-6.4,6.89,2.95,8.85,4.21,8.85,4.21,2.98-1.11,18.21-14.04,21.87-37.28,0,0,1.01-7.61,1.02-7.66,0-.07.43-5.28.43-5.28.42-4.1,0-10.21-.51-12.77,7.92-20.19,12.13-37.48,15.93-63.16,0,0,23.27-142.53-98.62-237.75,2.38,1.3,164.27,91.05,143.91,265.29Z"/>
      <path class="cls-15" d="m689.02,583.11s-52.47,43.91-161.07,25.86c0,0-69.79-14.98-106.47-27.66,0,0-84.77-22.98-116.68-34.81,22.49,1.27,103.91,2.13,156.26,2.13,0,0,54.58-.29,81.19-.77,4.72,6.69,9.19,16.34,30.64,24.77,0,0,40.88,15.63,73.19-16.44,0,0,16.68-14.58,19.4-41.23h0c52.95-36.05,73.15-76.43,73.15-76.43,0,0,36.13-65.98,23.84-123.9,2.61,11.32,40.64,185.87-73.45,268.48Z"/>
      <path class="cls-5" d="m424.1,750.76s-51.14.58-106.53-15.35h0c-38.9-11.19-79.9-30.52-106.74-63.92,0,0,41.15-10.61,105.82,27.36,0,0,31.41,20.09,47.95,28.46,0,0,12.88,8.21,28.68,14.93h0c9.94,4.22,21.04,7.87,30.83,8.51Z"/>
      <path class="cls-12" d="m633.84,237.13S539.19,52.04,371.98,42.39c0,0-123.17-8.5-203.46,69.17,0,0,78.3-68.8,233.98-37.17,0,0,130.56,33.83,231.34,162.74Z"/>
      <path class="cls-11" d="m161.66,595.7s21.45-20.43,66.04-25.53c0,0-71.83-37.79-72.17-127.32,0,0-42.04,36.09,6.13,152.85Z"/>
    </g>
  </g>
</svg>